<?xml version="1.0" standalone="no"?><!DOCTYPE svg PUBLIC "-//W3C//DTD SVG 1.1//EN" "http://www.w3.org/Graphics/SVG/1.1/DTD/svg11.dtd"><svg class="icon" width="200px" height="200.00px" viewBox="0 0 1024 1024" version="1.1" xmlns="http://www.w3.org/2000/svg"><path fill="#cdcdcd" d="M337.066667 373.333333l115.2 49.066667h2.133333L512 448l57.6-25.6h2.133333l115.2-49.066667L512 298.666667l-174.933333 74.666666zM520.533333 625.066667c-2.133333 0-4.266667 2.133333-8.533333 2.133333s-4.266667 0-8.533333-2.133333l-53.333334-23.466667-113.066666 49.066667L512 725.333333l174.933333-74.666666-113.066666-49.066667-53.333334 23.466667zM520.533333 488.533333c-4.266667 2.133333-6.4 2.133333-8.533333 2.133334s-4.266667 0-8.533333-2.133334l-59.733334-25.6-108.8 46.933334 174.933334 74.666666 174.933333-74.666666-108.8-46.933334-55.466667 25.6z"  /><path fill="#cdcdcd" d="M512 0C228.266667 0 0 228.266667 0 512s228.266667 512 512 512 512-228.266667 512-512S795.733333 0 512 0z m232.533333 490.666667c6.4 2.133333 12.8 10.666667 12.8 19.2s-4.266667 14.933333-12.8 19.2l-119.466666 51.2 119.466666 51.2c6.4 2.133333 12.8 10.666667 12.8 19.2s-4.266667 14.933333-12.8 19.2l-226.133333 96c-2.133333 2.133333-4.266667 2.133333-6.4 2.133333s-4.266667 0-8.533333-2.133333L277.333333 669.866667c-6.4-2.133333-12.8-10.666667-12.8-19.2s4.266667-14.933333 12.8-19.2l119.466667-51.2-119.466667-51.2c-6.4-2.133333-12.8-10.666667-12.8-19.2s4.266667-14.933333 12.8-19.2l115.2-49.066667-115.2-49.066667c-6.4-2.133333-12.8-10.666667-12.8-19.2s4.266667-14.933333 12.8-19.2l226.133334-96c4.266667-2.133333 10.666667-2.133333 14.933333 0l226.133333 96c6.4 2.133333 12.8 10.666667 12.8 19.2s-4.266667 14.933333-12.8 19.2l-115.2 49.066667 115.2 49.066667z"  /></svg>